PathFileType	4	(X/Y/Z)	RBDS013\RBDS013runT35.trc
DataRate	CameraRate	NumFrames	NumMarkers	Units	OrigDataRate	OrigDataStartFrame	OrigNumFrames
150.000000	150.000000	4	33	mm	150.000000	2812	4500
Frame#	Time	L.ASIS			L.Heel.Bottom			L.Heel.Lateral			L.Heel.Top			L.Iliac.Crest			L.MT1			L.MT5			L.PSIS			L.Shank.Bottom.Lateral			L.Shank.Bottom.Medial			L.Shank.Top.Lateral			L.Shank.Top.Medial			L.Thigh.Bottom.Lateral			L.Thigh.Bottom.Medial			L.Thigh.Top.Lateral			L.Thigh.Top.Medial			R.ASIS			R.ASY			R.Heel.Bottom			R.Heel.Lateral			R.Heel.Top			R.Iliac.Crest			R.MT1			R.MT5			R.PSIS			R.Shank.Bottom.Lateral			R.Shank.Bottom.Medial			R.Shank.Top.Lateral			R.Shank.Top.Medial			R.Thigh.Bottom.Lateral			R.Thigh.Bottom.Medial			R.Thigh.Top.Lateral			R.Thigh.Top.Medial			
		X1	Y1	Z1	X2	Y2	Z2	X3	Y3	Z3	X4	Y4	Z4	X5	Y5	Z5	X6	Y6	Z6	X7	Y7	Z7	X8	Y8	Z8	X9	Y9	Z9	X10	Y10	Z10	X11	Y11	Z11	X12	Y12	Z12	X13	Y13	Z13	X14	Y14	Z14	X15	Y15	Z15	X16	Y16	Z16	X17	Y17	Z17	X18	Y18	Z18	X19	Y19	Z19	X20	Y20	Z20	X21	Y21	Z21	X22	Y22	Z22	X23	Y23	Z23	X24	Y24	Z24	X25	Y25	Z25	X26	Y26	Z26	X27	Y27	Z27	X28	Y28	Z28	X29	Y29	Z29	X30	Y30	Z30	X31	Y31	Z31	X32	Y32	Z32	X33	Y33	Z33	

2813	18.74666666666667	2333.031614424077	906.3038090736903	899.2263959095546	1847.045531138493	123.9810110476263	996.8519397080004	1876.242208583327	127.0622352843945	952.3319643847262	1876.000888701305	160.0832413023916	989.8908982313715	2290.345669296577	979.9740696906448	876.2451033902619	2036.684499896912	49.58585905522134	1029.754281745766	1995.9105021555	38.91182518035975	924.6781370492387	2184.654631199538	965.9480515495704	984.0870342247881	1970.203335929519	214.7401503392982	927.8635968757986	1936.416276030951	238.9380119821065	964.9220081297194	2000.219784755468	286.9786684096463	909.7923015848291	1970.496922108615	310.6479835119868	947.9009169411183	2195.549807394095	568.3938283075246	873.7181006772535	2132.631750494995	586.1941961439555	905.7662806281893	2213.469236821519	675.7918479338367	855.6351780822575	2154.831227700644	692.6746399346824	886.9743554531919	2353.757261884546	916.250513124877	1131.122851234534	2221.26904406381	284.50008101858	1078.393033875754	2087.984107667014	420.2220901778859	1063.094453384539	2115.578923942822	409.31164732132	1103.775249204182	2137.077688586619	435.2483997877789	1063.555539908157	2306.811872881766	980.6143536340396	1173.205746003506	2198.364101549987	244.8024802085471	1032.360268552482	2175.967086692492	265.412485687339	1137.043466988684	2188.044785431028	964.8551849220022	1082.695569115233	2228.226739013352	422.3008399543284	1123.323395190139	2213.483750947131	458.0135646151023	1089.435903120637	2297.197430260329	469.161618040112	1139.896524832435	2277.94347424123	504.4348959316047	1104.713498357056	2450.583791107627	658.0208115914027	1193.533514680663	2408.158988095525	615.1513116972283	1152.050295484764	2367.74408708378	729.3880213434127	1201.863631418518	2325.419747157455	687.0289964199271	1166.015344581754	
2814	18.75333333333333	2335.963860971473	910.6912348699281	899.9826520412886	1832.374337569796	138.5133705219581	995.1203472264206	1861.734975314341	139.2680610155596	950.5646789640394	1863.21633730939	172.754222721354	987.6262961844186	2297.448556856841	986.0611219070635	877.1758749739795	2017.660663141245	52.85465507211073	1028.115616278479	1975.73273433969	42.51736097047538	923.7156429234647	2187.478156006188	972.0164209542977	983.6633991872714	1955.557509629624	224.6279949802636	925.7616859799773	1922.455116532985	248.2962388919035	963.8518162945967	1985.350657073719	297.2481919702242	908.4015544476935	1956.163578609703	320.3345397753253	947.4029263670741	2184.861900174063	576.7384315049137	873.1761840995478	2123.277913137946	597.0714230088	906.339166829913	2207.123781684068	683.3690973722204	855.2108453815373	2149.756297158588	702.5691339324031	887.6099740189951	2355.363791368085	922.4108845593804	1130.400346853834	2246.660020317753	270.3327706388779	1079.750527792943	2103.283947618202	395.1816170078301	1060.491932207818	2131.150215215955	386.9843637687133	1101.538945832544	2151.038637222187	413.9105570541618	1061.158309818255	2309.153473611975	987.5213128845542	1173.144337010783	2227.051326955447	228.2599315860297	1034.16243035753	2201.983257605653	248.7362848246929	1138.017497637921	2190.188298342402	971.4756568484163	1082.869685206238	2242.202255850404	408.8048118646477	1122.045393168817	2225.131856856549	442.8135142544355	1087.548026359832	2307.277091709481	461.1636974616443	1138.385070826401	2285.586153268892	494.4348144884363	1102.656405264822	2455.197878872836	667.7434485790758	1193.033647806242	2413.038246023212	623.738195743791	1152.480869767267	2371.26050757052	737.642547625662	1201.990409445274	2329.245404877851	694.2351815866693	1167.132738578497	
2815	18.76	2338.896791848725	914.7819949544984	900.8231834111732	1818.436655073767	153.9152440791224	993.5706036911049	1847.728828626603	152.4661912102206	948.9434923166648	1851.045756314405	186.2580854925196	985.5281426982518	2304.421571038262	991.7765310002815	878.1290559863818	1999.167294686946	57.2696730596217	1026.266873802508	1955.906726621425	47.48574771680875	922.614591788559	2190.372317901745	978.0427335263429	983.2230532851153	1941.685271483028	234.967581797232	923.7029328038494	1909.269711615554	258.257014688758	962.7046796649481	1971.569644321656	307.8235468502263	907.0499171508241	1942.877490755031	330.4798387659289	946.7992737814113	2175.197198260253	585.1753120454632	872.5698261035853	2114.956866696833	607.776290520397	906.8191337582789	2201.444106856735	690.9808075408306	854.7356304595246	2145.359683952838	712.2528730499139	888.1893534273936	2356.874674135764	928.2276160453008	1129.782089526888	2272.862812078044	256.8035259477099	1081.171824630712	2120.242225538751	370.0154304036058	1057.928568672291	2148.108963204067	364.525478409434	1099.390300594739	2166.358205045495	392.3389308711326	1058.841535015297	2311.31887777474	994.3326073847217	1173.113563043908	2256.794547907081	212.6881952621558	1036.034140154872	2228.878402097077	232.69852927837	1139.05968794253	2192.428593853194	978.007018287617	1083.022113749063	2256.846233890811	395.1461694186576	1120.838207684091	2237.75326752103	427.2193384770826	1085.592776215327	2317.61532517057	452.6346472616266	1136.914717622348	2293.84730371253	483.6639512987657	1100.490357070721	2459.161661099536	676.5736582441042	1192.446595034824	2417.057019656655	631.4835488391753	1153.013927454086	2374.341865905512	745.2775661194144	1201.9651077141	2332.502250915823	700.9277363492894	1168.1674882138	
2816	18.76666666666667	2341.73935439089	918.5642122971095	901.726592090271	1805.002520874815	170.1013631635757	992.3144904223323	1833.97796487507	166.6263890022403	947.5635480426288	1839.228720852984	200.5478637474327	983.7029563899695	2311.009653630031	997.0522503600919	879.07541494785	1981.014284349526	62.95046337676003	1024.234257268098	1936.263866691695	53.98561407963604	921.4129877705828	2193.266182425752	983.9563814712172	982.7476330040504	1928.417383813891	245.7652060600377	921.7736915636525	1896.710668617553	268.8757796668577	961.5451935534164	1958.790098046306	318.645621655212	905.7755908414513	1930.587530587532	341.0749178733029	946.1152536273155	2166.707273671027	593.4629263014949	871.8975312769691	2107.746964307139	618.0209568498993	907.1492174159787	2196.497927253257	698.444756030729	854.2323893411145	2141.641410928294	721.4994173071656	888.6809957305118	2358.217243598018	933.5957839172009	1129.310640613146	2299.746161787411	243.9857976163527	1082.604781043098	2138.814943105506	344.8757240975282	1055.523423985529	2166.436745151701	342.0421711668039	1097.425297574833	2183.000940602485	370.6677620994519	1056.717415720527	2313.260829087943	1000.928954126021	1173.127189983796	2287.438203927672	198.2170441163219	1037.895315096136	2256.593873795967	217.3507776335193	1140.125556250948	2194.691928130518	984.3387114438058	1083.106553920079	2272.12896768776	381.3751574292405	1119.750099317177	2251.318432533569	411.3383558494988	1083.64813743795	2328.216578641823	443.5883478415301	1135.553900155128	2302.750289053688	472.1933815764476	1098.303755806354	2462.394779813575	684.2925806627073	1191.749338773753	2420.139507283922	638.2026841668054	1153.585842192067	2376.90045709482	752.0985169227577	1201.769724657718	2335.105582615261	706.9450357277959	1169.039174892486	
